<?xml version="1.0" encoding="utf-8"?>
<!-- Generator: Adobe Illustrator 19.2.1, SVG Export Plug-In . SVG Version: 6.00 Build 0)  -->
<svg version="1.1" id="layer" xmlns="http://www.w3.org/2000/svg" x="0px" y="0px"
	 viewBox="0 0 652 652" style="enable-background:new 0 0 652 652;" xml:space="preserve">
<style type="text/css">
	.st0{fill:#8ABA40;}
</style>
<g id="Layer_2">
	<g id="Logi_color">
		<path d="M120.5,352.8H24V198.5h27v131h51.5C110.7,344.2,120.5,352.8,120.5,352.8z M164.9,355.8c-8.9,0-16.9-1.5-23.9-4.4
			c-6.7-2.8-12.8-6.9-17.7-12.2c-4.9-5.4-8.7-11.7-11-18.6c-2.6-7.7-3.9-15.7-3.8-23.8c-0.1-8,1.2-16,3.8-23.5
			c2.3-6.9,6.1-13.2,11-18.6c5-5.3,11-9.5,17.7-12.2c7-2.9,15-4.4,23.9-4.4c8.9,0,16.9,1.5,23.9,4.4c6.7,2.8,12.8,6.9,17.7,12.2
			c4.9,5.4,8.7,11.7,11,18.6c2.6,7.6,3.9,15.5,3.8,23.5c0.1,8.1-1.2,16.1-3.8,23.8c-2.3,6.9-6.1,13.2-11,18.6
			c-5,5.3-11,9.5-17.7,12.2C181.8,354.3,173.8,355.8,164.9,355.8z M164.9,336.4c5.5,0,10.2-1.2,14.3-3.5c4-2.2,7.4-5.3,9.9-9.1
			c2.6-3.8,4.6-8.1,5.7-12.6c2.4-9.4,2.4-19.3,0-28.6c-1.1-4.5-3.1-8.8-5.7-12.7c-2.6-3.7-6-6.8-9.9-9c-4-2.3-8.8-3.5-14.3-3.5
			s-10.2,1.2-14.3,3.5c-3.9,2.2-7.3,5.3-9.9,9c-2.7,3.8-4.6,8.1-5.7,12.7c-2.5,9.4-2.5,19.3,0,28.6c1.2,4.5,3.1,8.8,5.7,12.6
			c2.6,3.7,6,6.8,9.9,9.1C154.7,335.2,159.4,336.4,164.9,336.4L164.9,336.4z M336.6,347c0,16.9-4.7,29.4-14.2,37.7
			c-9.4,8.3-23,12.4-40.8,12.4c-5.7,0-11.4-0.6-17-1.7c-5.5-1.1-10.7-3-15.6-5.8c-4.7-2.7-8.7-6.4-11.8-10.8
			c-3.2-4.5-5-9.9-5.6-16.4h24.6c0.5,3.1,1.8,6,3.7,8.5c1.7,2.1,3.8,3.8,6.2,5.1c2.5,1.3,5.1,2.1,7.9,2.4c3,0.4,6,0.5,9.1,0.5
			c9.9,0,17.2-2.4,21.8-7.3c4.6-4.9,6.9-12,6.9-21.2v-17.1h-0.4c-3.3,6-8.2,11-14.2,14.5c-5.9,3.4-12.6,5.2-19.4,5.2
			c-8.9,0-16.5-1.5-22.8-4.6c-6.1-3-11.5-7.3-15.6-12.8c-4.2-5.6-7.2-11.9-9-18.7c-1.9-7.4-2.9-15-2.8-22.7c0-7.3,1.1-14.5,3.5-21.4
			c2.2-6.5,5.5-12.6,9.9-17.8c4.4-5.1,9.8-9.3,15.9-12.2c6.3-3,13.4-4.5,21.3-4.5c6.7-0.1,13.4,1.4,19.5,4.4
			c5.9,3,10.5,7.6,13.6,13.9h0.4V241h24.6L336.6,347z M281.9,333.4c5.5,0,10.1-1.1,14-3.4c3.8-2.2,6.9-5.2,9.3-8.9
			c2.4-3.8,4.2-8.1,5.2-12.5c1.1-4.6,1.6-9.4,1.6-14.2c0-4.7-0.6-9.3-1.7-13.9c-1.1-4.2-2.8-8.3-5.3-11.9c-2.4-3.5-5.6-6.3-9.3-8.2
			c-3.8-2-8.4-3-13.7-3c-5.5,0-10.1,1.2-13.8,3.5c-3.7,2.2-6.8,5.3-9.1,9c-2.4,3.9-4.1,8.1-5,12.5c-1,4.6-1.5,9.3-1.5,13.9
			c0,4.6,0.6,9.1,1.7,13.5c1.1,4.2,2.9,8.2,5.3,11.8c2.4,3.5,5.4,6.3,9.1,8.5C272.2,332.3,276.7,333.3,281.9,333.4L281.9,333.4z
			 M357.8,198.5h24.6v23.3h-24.6V198.5z M357.8,241.1h24.6v111.7h-24.6V241.1z"/>
		<path class="st0" d="M514.7,234H434c-10,0-18.1-8.1-18.1-18.1c0-10,8.1-18.1,18.1-18.1c0,0,0,0,0,0h80.7c10,0,18.1,8.1,18.1,18.1
			C532.8,225.9,524.7,234,514.7,234C514.7,234,514.7,234,514.7,234z M559.7,293.4H434c-10,0-18.1-8.1-18.1-18.1
			c0-10,8.1-18.1,18.1-18.1c0,0,0,0,0,0h125.6c10,0,18.1,8.1,18.1,18.1C577.7,285.3,569.6,293.4,559.7,293.4
			C559.7,293.4,559.7,293.4,559.7,293.4L559.7,293.4z M603.8,352.7H434c-10,0-18.1-8.1-18.1-18.1c0-10,8.1-18.1,18.1-18.1h169.8
			c10,0,18.1,8.1,18.1,18.1C621.9,344.7,613.8,352.7,603.8,352.7z"/>
		<path d="M40,402h5.1l17.6,41.2h-6.5L52.1,433H32.5l-4.1,10.2h-6.5L40,402z M50,428.1l-7.7-18.9h-0.1l-7.8,18.9H50z M98.4,402h7.4
			l22.7,33.9h0.1V402h5.6v41.2h-7.1l-22.9-33.9H104v33.9h-5.6L98.4,402z M187.9,402h5.1l17.6,41.2h-6.5L200,433h-19.6l-4.1,10.2
			h-6.5L187.9,402z M197.9,428.1l-7.7-18.9h-0.1l-7.8,18.9H197.9z M246.4,402h5.6v36h18.9v5.2h-24.5V402z M320.9,425.6L305.3,402
			h7.2l11.2,18.1l11.6-18.1h6.8l-15.6,23.6v17.6h-5.6V425.6z M387,407.2h-13.3V402h32.1v5.2h-13.3v36H387L387,407.2z M443.3,402h5.6
			v41.2h-5.6V402z M516.4,410.9c-1.2-1.5-2.7-2.7-4.4-3.5c-1.7-0.8-3.6-1.2-5.5-1.2c-2.2,0-4.3,0.4-6.3,1.3
			c-1.8,0.8-3.5,2.1-4.8,3.6c-1.4,1.6-2.4,3.4-3.1,5.3c-0.7,2.1-1.1,4.3-1.1,6.6c0,2.1,0.3,4.2,1.1,6.2c0.7,1.9,1.7,3.6,3,5.1
			c1.3,1.5,3,2.7,4.8,3.5c2,0.9,4.2,1.3,6.5,1.3c2.2,0,4.3-0.5,6.3-1.5c1.8-1,3.4-2.4,4.5-4.1l4.7,3.6c-0.5,0.6-1.1,1.2-1.6,1.8
			c-0.9,0.9-2,1.7-3.1,2.4c-1.5,0.9-3,1.6-4.6,2.1c-2,0.6-4.1,0.9-6.3,0.9c-3,0-6.1-0.6-8.8-1.9c-7.5-3.6-12.3-11.1-12.4-19.4
			c0-3,0.5-6,1.6-8.8c1-2.6,2.5-5,4.4-7c1.9-2,4.2-3.5,6.8-4.6c2.8-1.1,5.7-1.7,8.7-1.6c2.7,0,5.5,0.5,8,1.6c2.5,1,4.8,2.7,6.4,4.8
			L516.4,410.9z M560.4,434.6c0.9,1.5,2.3,2.6,3.9,3.3c1.5,0.7,3.2,1.1,4.8,1.1c1,0,1.9-0.2,2.9-0.4c0.9-0.3,1.8-0.7,2.6-1.3
			c0.8-0.6,1.5-1.3,2-2.2c0.5-0.9,0.8-1.9,0.8-3c0.1-1.4-0.5-2.7-1.5-3.6c-1.1-0.9-2.4-1.6-3.8-2.1c-1.5-0.6-3.1-1.1-4.9-1.6
			c-1.7-0.5-3.4-1.2-4.9-2.2c-1.5-1-2.8-2.2-3.8-3.8c-1-1.6-1.5-3.7-1.5-6.4c0.1-2.8,1.2-5.6,3.3-7.6c1.3-1.2,2.7-2.2,4.3-2.8
			c2-0.8,4.2-1.2,6.4-1.1c2.2,0,4.4,0.3,6.5,0.9c2.2,0.7,4,2,5.4,3.8l-4.5,4.1c-0.7-1.1-1.8-2-3-2.6c-1.4-0.7-2.9-1-4.4-1
			c-1.3,0-2.6,0.2-3.9,0.6c-0.9,0.3-1.8,0.9-2.5,1.6c-0.6,0.6-1,1.3-1.3,2.1c-0.2,0.7-0.4,1.3-0.4,2c-0.1,1.5,0.5,3,1.5,4
			c1.1,1,2.4,1.8,3.8,2.3c1.6,0.6,3.2,1.1,4.9,1.6c1.7,0.4,3.3,1.1,4.9,2c1.5,0.8,2.8,2,3.7,3.4c1,1.4,1.5,3.4,1.5,5.9
			c0,1.8-0.4,3.7-1.1,5.4c-0.7,1.5-1.8,2.9-3.1,4c-1.3,1.1-2.9,2-4.5,2.5c-1.8,0.6-3.7,0.9-5.6,0.9c-2.6,0-5.1-0.5-7.5-1.4
			c-2.3-0.9-4.2-2.4-5.6-4.3L560.4,434.6z"/>
	</g>
</g>
</svg>
