<svg xmlns="http://www.w3.org/2000/svg" viewBox="0 0 994 408.11"><defs><style>.cls-1{fill:#fff}.cls-2{fill:#8aba40}</style></defs><title>Asset 1</title><g id="Layer_2" data-name="Layer 2"><g id="Logi_color" data-name="Logi color"><path class="cls-1" d="M163.33 256.62H3.47V1h44.77v217h85.29c13.53 24.37 29.8 38.62 29.8 38.62zM236.88 261.64q-22.22 0-39.57-7.35a84.19 84.19 0 0 1-29.37-20.23 86.28 86.28 0 0 1-18.26-30.79 118.51 118.51 0 0 1-6.26-39.39 117.37 117.37 0 0 1 6.26-39 86.41 86.41 0 0 1 18.26-30.8 84.46 84.46 0 0 1 29.37-20.23q17.37-7.32 39.57-7.34t39.57 7.34a84.55 84.55 0 0 1 29.37 20.23 86.71 86.71 0 0 1 18.26 30.8 117.63 117.63 0 0 1 6.26 39 118.77 118.77 0 0 1-6.26 39.39 86.57 86.57 0 0 1-18.26 30.79 84.28 84.28 0 0 1-29.37 20.23q-17.37 7.34-39.57 7.35zm0-32.23q13.6 0 23.64-5.73a49.84 49.84 0 0 0 16.47-15 65.57 65.57 0 0 0 9.49-20.94 94.1 94.1 0 0 0 0-47.45 63.32 63.32 0 0 0-9.49-21 50.62 50.62 0 0 0-16.47-14.86q-10-5.73-23.64-5.73t-23.64 5.73a50.52 50.52 0 0 0-16.47 14.86 63.32 63.32 0 0 0-9.49 21 93.8 93.8 0 0 0 0 47.45 65.57 65.57 0 0 0 9.49 20.94 49.74 49.74 0 0 0 16.47 15q10.02 5.73 23.64 5.73zM521.21 247q0 41.91-23.45 62.49T430.25 330a141.29 141.29 0 0 1-28.11-2.86 83.57 83.57 0 0 1-25.78-9.66 62.1 62.1 0 0 1-19.52-17.91q-7.87-11.1-9.31-27.21h40.82a32.79 32.79 0 0 0 6.09 14 31.33 31.33 0 0 0 10.21 8.42 39.06 39.06 0 0 0 13.07 3.94 122.74 122.74 0 0 0 15 .89q24.71 0 36.17-12.17t11.46-35.1V224h-.71a62.19 62.19 0 0 1-23.46 24 63 63 0 0 1-32.05 8.59q-22.21 0-37.78-7.7a71.7 71.7 0 0 1-25.79-21.13 87.65 87.65 0 0 1-14.86-31 146.24 146.24 0 0 1-4.66-37.59 108.94 108.94 0 0 1 5.74-35.45 90.14 90.14 0 0 1 16.47-29.55A78.84 78.84 0 0 1 389.61 74q15.58-7.52 35.27-7.52a71.23 71.23 0 0 1 32.23 7.34q14.68 7.35 22.57 23.1h.71V71.5h40.82zm-90.6-22.55q13.61 0 23.11-5.55a45.53 45.53 0 0 0 15.39-14.68 64.9 64.9 0 0 0 8.6-20.78 103.89 103.89 0 0 0 2.68-23.45 91.4 91.4 0 0 0-2.87-22.99 61.66 61.66 0 0 0-8.77-19.69 42.54 42.54 0 0 0-15.4-13.61q-9.48-5-22.74-5-13.61 0-22.92 5.73a45.85 45.85 0 0 0-15 14.86 63.87 63.87 0 0 0-8.23 20.77 109.55 109.55 0 0 0-2.51 23.1 87.38 87.38 0 0 0 2.87 22.38 61.44 61.44 0 0 0 8.77 19.51 46.79 46.79 0 0 0 15 14q9.14 5.35 22.02 5.35zM556.31 1h40.82v38.62h-40.82zm0 70.55h40.82v185.07h-40.82z"/><path class="cls-2" d="M816.28 59.82H682.65a29.91 29.91 0 1 1 0-59.82h133.63a29.91 29.91 0 1 1 0 59.82zM890.72 158.18H682.65a29.91 29.91 0 1 1 0-59.82h208.07a29.91 29.91 0 1 1 0 59.82zM963.84 256.55H682.65a29.91 29.91 0 1 1 0-59.82h281.19a29.91 29.91 0 1 1 0 59.82z"/><path class="cls-1" d="M30.08 338.12h8.39l29.21 68.26h-10.8L50 389.5H17.55l-6.75 16.88H0zm16.58 43.29l-12.72-31.33h-.2l-12.92 31.33zM126.81 338.12H139l37.6 56.11h.19v-56.11H186v68.26h-11.75l-38-56.11h-.19v56.11h-9.26zM275 338.12h8.39l29.21 68.26h-10.8L295 389.5h-32.51l-6.75 16.88h-10.8zm16.58 43.29l-12.72-31.33h-.2l-12.92 31.33zM371.82 338.12h9.26v59.58h31.33v8.68h-40.59zM495.29 377.26l-25.84-39.14h11.86l18.6 30 19.19-30h11.28l-25.84 39.14v29.12h-9.25zM604.78 346.8h-22v-8.68H636v8.68h-22v59.58h-9.25zM698 338.12h9.25v68.26H698zM819 352.87a19.14 19.14 0 0 0-7.33-5.78 21.8 21.8 0 0 0-9.16-2 24.68 24.68 0 0 0-10.46 2.16 24.08 24.08 0 0 0-8 5.93 27.06 27.06 0 0 0-5.16 8.82 31.69 31.69 0 0 0-1.83 10.85 29.94 29.94 0 0 0 1.74 10.22 25.36 25.36 0 0 0 5 8.48 23.4 23.4 0 0 0 8 5.78 25.78 25.78 0 0 0 10.7 2.12 21.26 21.26 0 0 0 10.37-2.45 22.06 22.06 0 0 0 7.52-6.74l7.81 5.88a32.94 32.94 0 0 1-2.7 3 27.34 27.34 0 0 1-5.11 4 36.34 36.34 0 0 1-7.67 3.46 32.59 32.59 0 0 1-10.36 1.5 33.65 33.65 0 0 1-14.61-3.1 35.75 35.75 0 0 1-20.48-32.19 40.14 40.14 0 0 1 2.6-14.61 34.55 34.55 0 0 1 7.28-11.56 32.51 32.51 0 0 1 11.23-7.57 37.62 37.62 0 0 1 14.46-2.7A35.34 35.34 0 0 1 816.1 339a24.73 24.73 0 0 1 10.65 8zM891.93 392.11a15.19 15.19 0 0 0 6.41 5.54 19.19 19.19 0 0 0 8 1.78 16.52 16.52 0 0 0 4.73-.72 14.36 14.36 0 0 0 4.38-2.17 11.62 11.62 0 0 0 3.23-3.57 9.42 9.42 0 0 0 1.26-4.91 7.39 7.39 0 0 0-2.51-6 21.56 21.56 0 0 0-6.22-3.47q-3.71-1.4-8.1-2.7a32.67 32.67 0 0 1-8.09-3.61 19.88 19.88 0 0 1-6.23-6.22q-2.51-3.9-2.5-10.56a18.17 18.17 0 0 1 5.4-12.53 22.6 22.6 0 0 1 7.18-4.67 26.59 26.59 0 0 1 10.56-1.88 36.77 36.77 0 0 1 10.7 1.54 18.45 18.45 0 0 1 9 6.26l-7.5 6.78a12.58 12.58 0 0 0-4.92-4.34 15.58 15.58 0 0 0-7.23-1.63 17.41 17.41 0 0 0-6.41 1 11.42 11.42 0 0 0-4.1 2.6 9.2 9.2 0 0 0-2.17 3.42 10.45 10.45 0 0 0-.63 3.37 8.61 8.61 0 0 0 2.51 6.66 19.56 19.56 0 0 0 6.22 3.76 75 75 0 0 0 8.1 2.6 34.87 34.87 0 0 1 8.1 3.23 18.76 18.76 0 0 1 6.21 5.59q2.52 3.53 2.51 9.69a20.45 20.45 0 0 1-1.88 8.87 19.7 19.7 0 0 1-5.06 6.65 22.38 22.38 0 0 1-7.52 4.14 28.93 28.93 0 0 1-9.26 1.45 33.76 33.76 0 0 1-12.44-2.31 20.55 20.55 0 0 1-9.35-7.14z"/></g></g></svg>